<svg viewBox="62.354651162790695 178.4 425.29069767441865 41.6" xmlns="http://www.w3.org/2000/svg" version="1.2" style="max-height: 500px" width="425.29069767441865" height="41.6"><style>.a{fill:#7bafd4}</style><path d="m98.3 213.6q0 0.7-0.2 1.2-0.2 0.6-0.7 1-0.4 0.4-0.9 0.6-0.6 0.3-1.2 0.3h-21.8q-0.9 0-1.8-0.2-1-0.2-1.9-0.7-1-0.4-1.8-1-0.9-0.7-1.5-1.6-0.7-1-1.1-2.2-0.4-1.3-0.4-2.8v-16.4q0-0.8 0.2-1.8 0.2-0.9 0.6-1.9 0.4-0.9 1.1-1.8 0.7-0.8 1.6-1.5 1-0.7 2.2-1.1 1.2-0.4 2.8-0.4h24.5v6.1h-24.5q-1.2 0-1.8 0.6-0.7 0.6-0.7 1.9v16.3q0 1.1 0.7 1.8 0.6 0.6 1.8 0.6h18.8v-7.6h-16.1v-6h19.1q0.6 0 1.2 0.2 0.5 0.2 0.9 0.7 0.5 0.4 0.7 0.9 0.2 0.6 0.2 1.2z" class="a"/><path d="m137.3 216.7h-6v-8.2h-21.3v8.2h-6v-16.7q0-3.6 1.2-6.7 1.3-3.1 3.5-5.3 2.3-2.2 5.3-3.4 3-1.3 6.6-1.3h13.7q0.6 0 1.1 0.3 0.6 0.2 1 0.6 0.4 0.4 0.7 1 0.2 0.6 0.2 1.2zm-27.3-14.2h21.3v-13.1h-10.7q-0.2 0-1.1 0.1-0.9 0.1-2.1 0.4-1.2 0.3-2.5 1-1.3 0.7-2.4 1.9-1.1 1.1-1.8 2.9-0.7 1.8-0.7 4.3z" class="a" fill-rule="evenodd"/><path d="m174.9 216.7h-27.5q-0.7 0-1.2-0.3-0.6-0.2-1-0.6-0.4-0.4-0.6-1-0.3-0.5-0.3-1.2v-30.3h6.1v27.3h24.5z" class="a"/><path d="m210 216.7h-27.6q-0.6 0-1.2-0.3-0.6-0.2-1-0.6-0.4-0.4-0.6-1-0.2-0.5-0.2-1.2v-30.3h6v27.3h24.6z" class="a"/><path d="m244.4 216.7h-21.8q-1.3 0-2.8-0.5-1.5-0.4-2.7-1.4-1.3-1-2.1-2.7-0.9-1.6-0.9-3.9v-21.8q0-0.6 0.2-1.2 0.3-0.6 0.7-1 0.4-0.4 1-0.6 0.5-0.3 1.2-0.3h27.2v6.1h-24.2v18.8q0 1.2 0.6 1.8 0.6 0.6 1.8 0.6h21.8zm-2.8-13.6h-19v-6.1h19z" class="a" fill-rule="evenodd"/><path d="m283.5 194.5q0 2.1-0.5 3.7-0.5 1.7-1.4 2.9-0.9 1.2-2 2.1-1.1 0.9-2.4 1.5-1.2 0.6-2.5 0.8-1.3 0.3-2.4 0.3l12.6 10.9h-9.3l-12.6-10.9h-4.3v-6.1h13.6q1.2-0.1 2.1-0.5 0.9-0.3 1.6-1 0.7-0.6 1.1-1.6 0.4-0.9 0.4-2.1v-3.8q0-0.5-0.2-0.7-0.1-0.3-0.3-0.4-0.2-0.2-0.4-0.2-0.2 0-0.4 0h-20v27.3h-6v-30.3q0-0.6 0.2-1.2 0.3-0.6 0.7-1 0.4-0.4 0.9-0.6 0.6-0.3 1.2-0.3h23q2 0 3.4 0.8 1.4 0.7 2.3 1.8 0.8 1.1 1.2 2.4 0.4 1.3 0.4 2.4z" class="a"/><path d="m321.3 194.5q0 2.1-0.5 3.7-0.6 1.6-1.4 2.9-0.9 1.2-2 2.1-1.2 0.9-2.4 1.4-1.2 0.6-2.5 0.9-1.3 0.2-2.4 0.2h-2.4v11h-6.1v-11h-2.4q-1.1 0-2.4-0.2-1.3-0.3-2.5-0.9-1.3-0.5-2.4-1.4-1.1-0.9-2-2.1-0.9-1.3-1.4-2.9-0.5-1.7-0.5-3.7v-11.2h6v11.2q0 1.2 0.4 2.1 0.4 1 1 1.6 0.7 0.7 1.7 1.1 0.9 0.3 2.1 0.3h10.9q0.9-0.1 1.8-0.3 0.9-0.3 1.6-0.8 0.8-0.5 1.3-1.5 0.5-0.9 0.5-2.5v-11.2h6z" class="a"/><path d="m372.3 216.7h-21.8q-1.2 0-2.7-0.5-1.5-0.4-2.8-1.4-1.2-1-2.1-2.7-0.8-1.6-0.8-3.9v-21.8q0-0.6 0.2-1.2 0.2-0.6 0.6-1 0.4-0.4 1-0.6 0.6-0.3 1.2-0.3h27.2v6.1h-24.2v18.8q0 1.2 0.6 1.8 0.7 0.6 1.9 0.6h21.7zm-2.7-13.6h-19.1v-6.1h19.1z" class="a" fill-rule="evenodd"/><path d="m410.8 216.7h-6v-8.2h-21.2v8.2h-6.1v-16.7q0-3.6 1.3-6.7 1.2-3.1 3.5-5.3 2.2-2.2 5.2-3.4 3.1-1.3 6.7-1.3h13.6q0.6 0 1.2 0.3 0.5 0.2 1 0.6 0.4 0.4 0.6 1 0.2 0.6 0.2 1.2zm-27.2-14.2h21.2v-13.1h-10.6q-0.3 0-1.2 0.1-0.9 0.1-2.1 0.4-1.1 0.3-2.4 1-1.3 0.7-2.4 1.9-1.1 1.1-1.8 2.9-0.7 1.8-0.7 4.3z" class="a" fill-rule="evenodd"/><path d="m449.9 206.9q0 1.7-0.5 3.2-0.4 1.4-1.2 2.5-0.7 1.1-1.7 1.9-1 0.7-2.1 1.2-1.1 0.5-2.2 0.7-1.1 0.3-2 0.3h-23.3v-6.1h23.3q1.7 0 2.7-1 0.9-1 0.9-2.7 0-0.9-0.2-1.6-0.3-0.7-0.8-1.2-0.4-0.5-1.1-0.8-0.7-0.3-1.5-0.3h-13.9q-1.5 0-3.2-0.5-1.7-0.5-3.1-1.7-1.5-1.1-2.5-3-0.9-1.9-0.9-4.6 0-2.7 0.9-4.6 1-1.9 2.5-3 1.4-1.2 3.1-1.7 1.7-0.6 3.2-0.6h20.5v6.1h-20.5q-1.8 0-2.7 1-1 1.1-1 2.8 0 1.7 1 2.7 0.9 1.1 2.7 1.1h13.9q1 0 2.1 0.2 1.1 0.3 2.1 0.8 1.1 0.5 2.1 1.3 1 0.7 1.7 1.8 0.8 1.1 1.2 2.5 0.5 1.5 0.5 3.3z" class="a"/><path d="m485 216.7h-21.8q-1.2 0-2.7-0.5-1.5-0.4-2.8-1.4-1.3-1-2.1-2.7-0.9-1.6-0.9-3.9v-21.8q0-0.6 0.3-1.2 0.2-0.6 0.6-1 0.4-0.4 1-0.6 0.5-0.3 1.2-0.3h27.2v6.1h-24.2v18.8q0 1.2 0.6 1.8 0.6 0.6 1.9 0.6h21.7zm-2.7-13.6h-19.1v-6.1h19.1z" class="a" fill-rule="evenodd"/></svg>